<svg fill="none" height="24" viewBox="0 0 25 24" width="25" xmlns="http://www.w3.org/2000/svg"><path d="m16.0557 7c1.6568 0 3 1.34315 3 3m2.5-.59095c0 6.68225-9 10.59095-9 10.59095s-9.00004-3.9087-9.00004-10.59095c.01577-1.12656.35101-2.22062.96026-3.1338.60926-.91319 1.46305-1.60131 2.44559-1.97107.98254-.36975 2.0463-.40324 3.04699-.09592 1.0007.30732 1.89.94057 2.5472 1.81389.6572-.87332 1.5464-1.50657 2.5471-1.81389s2.0645-.27383 3.047.09592c.9826.36976 1.8364 1.05788 2.4456 1.97107.6093.91318.9445 2.00724.9603 3.1338z" stroke="#000" stroke-linecap="round" stroke-linejoin="round" stroke-width="1.5"/></svg>